<?xml version="1.0" encoding="utf-8"?>
<!-- Generator: Adobe Illustrator 27.5.0, SVG Export Plug-In . SVG Version: 6.00 Build 0)  -->
<svg version="1.1" xmlns="http://www.w3.org/2000/svg" xmlns:xlink="http://www.w3.org/1999/xlink" x="0px" y="0px"
	 viewBox="0 0 500 500" style="enable-background:new 0 0 500 500;" xml:space="preserve">
<g id="Background_Simple">
	<g>
		<path style="fill:#92E3A9;" d="M461.074,196.337c-0.157-0.49-0.31-0.983-0.461-1.479c-4.566-15.057-10.719-29.606-18.278-43.404
			c-15.021-27.421-35.461-51.813-59.545-71.723c-43.205-35.718-98.684-57.084-155.071-55.08
			c-41.336,1.469-78.442,14.637-105.19,47.141c-16.545,20.105-26.025,43.672-34.802,67.848
			c-6.588,18.145-25.529,29.065-39.149,41.371c-16.657,15.049-28.327,31.16-34.456,53.152c-11.033,39.585-6.542,84.384,1.08,124.16
			c6.015,31.393,22.06,62.948,48.381,82.011c40.284,29.176,79.241,6.938,121.353-1.887c42.688-8.945,81.172,18.641,120.611,29.658
			c35.049,9.791,84.146,19.414,113.91-8.26c56.59-52.615,96.271-140.989,64.715-216.821
			C477.436,226.842,466.486,213.247,461.074,196.337z"/>
		<path style="opacity:0.72;fill:#FFFFFF;" d="M461.074,196.337c-0.157-0.49-0.31-0.983-0.461-1.479
			c-4.566-15.057-10.719-29.606-18.278-43.404c-15.021-27.421-35.461-51.813-59.545-71.723
			c-43.205-35.718-98.684-57.084-155.071-55.08c-41.336,1.469-78.442,14.637-105.19,47.141
			c-16.545,20.105-26.025,43.672-34.802,67.848c-6.588,18.145-25.529,29.065-39.149,41.371
			c-16.657,15.049-28.327,31.16-34.456,53.152c-11.033,39.585-6.542,84.384,1.08,124.16c6.015,31.393,22.06,62.948,48.381,82.011
			c40.284,29.176,79.241,6.938,121.353-1.887c42.688-8.945,81.172,18.641,120.611,29.658c35.049,9.791,84.146,19.414,113.91-8.26
			c56.59-52.615,96.271-140.989,64.715-216.821C477.436,226.842,466.486,213.247,461.074,196.337z"/>
	</g>
</g>
<g id="Clouds">
	<g>
		<path style="fill:#263238;" d="M475.921,75.715c-4.538-10.045-14.955-16.58-25.116-15.497c-3.072,0.327-6.51,1.176-8.988-0.853
			c-0.872-0.714-1.468-1.654-1.917-2.715c-5.589-13.216-12.723-23.69-26.556-26.565c-16.115-3.35-31.493,3.564-42.554,16.587
			c-5.322,6.266-10.006,15.429-17.788,15.236c-6.12-0.152-10.874-6.432-16.943-7.317c-8.368-1.22-15.139,7.952-23.492,9.297
			c-6.553,1.055-12.918-2.857-19.528-3.314c-10.352-0.716-19.44,6.908-29.156,10.912c-4.333,1.786-8.906,2.853-13.521,3.188
			c-2.355,0.171-4.721,0.152-7.074-0.059c-1.802-0.162-4.227-1.163-5.955-0.423c-0.526,0.225-1.291,0.822-1.708,1.525H475.921z"/>
		<path style="opacity:0.32;fill:#FFFFFF;" d="M450.806,69.453c-3.072,0.327-6.51,1.176-8.988-0.853
			c-0.872-0.714-1.468-1.654-1.917-2.715c-5.589-13.216-12.723-23.69-26.556-26.565c-16.115-3.35-31.493,3.564-42.554,16.587
			c-5.322,6.266-10.006,15.429-17.788,15.236c-6.12-0.152-10.874-6.433-16.943-7.318c-8.368-1.22-15.139,7.952-23.492,9.297
			c-6.553,1.055-12.918-2.857-19.528-3.314c-5.33-0.368-10.324,1.478-15.243,3.899H466.48
			C461.818,70.511,456.279,68.869,450.806,69.453z"/>
	</g>
	<g>
		<path style="fill:#263238;" d="M158.223,150.36c-2.677-5.926-8.823-9.782-14.818-9.143c-1.812,0.193-3.841,0.694-5.303-0.503
			c-0.515-0.421-0.866-0.976-1.131-1.602c-3.297-7.797-7.506-13.977-15.668-15.673c-9.507-1.976-18.58,2.103-25.106,9.786
			c-3.14,3.697-5.904,9.103-10.495,8.989c-3.611-0.09-6.416-3.795-9.996-4.317c-4.937-0.72-8.932,4.692-13.86,5.485
			c-3.866,0.622-7.622-1.686-11.521-1.955c-6.107-0.422-11.469,4.075-17.202,6.438c-2.556,1.054-5.255,1.683-7.977,1.881
			c-1.389,0.101-2.785,0.089-4.173-0.035c-1.063-0.095-2.494-0.686-3.513-0.249c-0.31,0.133-0.762,0.485-1.007,0.9H158.223z"/>
		<path style="opacity:0.32;fill:#FFFFFF;" d="M143.405,146.666c-1.812,0.193-3.841,0.694-5.303-0.503
			c-0.515-0.421-0.866-0.976-1.131-1.602c-3.297-7.797-7.506-13.977-15.668-15.673c-9.507-1.976-18.58,2.103-25.106,9.786
			c-3.14,3.697-5.904,9.103-10.495,8.989c-3.611-0.09-6.416-3.795-9.996-4.317c-4.937-0.72-8.932,4.692-13.86,5.485
			c-3.866,0.622-7.622-1.686-11.521-1.955c-3.144-0.217-6.091,0.872-8.993,2.3h111.32
			C149.902,147.29,146.634,146.322,143.405,146.666z"/>
	</g>
	<g>
		<g>
			<path style="fill:#263238;" d="M489.02,454.24c-9.093-18.248-29.968-30.121-50.329-28.153
				c-6.156,0.595-13.045,2.136-18.011-1.549c-1.748-1.297-2.941-3.004-3.841-4.933c-11.199-24.009-25.496-43.037-53.215-48.261
				c-32.292-6.086-63.109,6.475-85.275,30.134c-10.664,11.383-20.052,28.03-35.646,27.679
				c-12.264-0.277-21.791-11.686-33.952-13.294c-16.77-2.217-30.338,14.447-47.076,16.889c-13.132,1.917-25.887-5.191-39.132-6.021
				c-20.744-1.3-38.957,12.549-58.426,19.825c-8.683,3.245-17.848,5.182-27.096,5.791c-4.719,0.311-9.461,0.276-14.175-0.108
				c-3.612-0.294-8.47-2.112-11.934-0.768c-1.054,0.409-2.587,1.493-3.422,2.77H489.02z"/>
		</g>
		<path style="opacity:0.32;fill:#FFFFFF;" d="M122.542,445.49c13.245,0.83,26,7.937,39.132,6.021
			c16.738-2.443,30.306-19.106,47.076-16.889c12.161,1.608,21.689,13.017,33.952,13.294c15.594,0.352,24.982-16.295,35.646-27.679
			c22.165-23.659,52.983-36.219,85.275-30.133c27.719,5.224,42.016,24.251,53.215,48.261c0.9,1.929,2.093,3.636,3.841,4.933
			c4.966,3.685,11.856,2.144,18.011,1.549c11.986-1.158,24.148,2.483,33.982,9.395h16.348
			c-9.093-18.248-29.968-30.121-50.329-28.153c-6.155,0.595-13.045,2.136-18.011-1.549c-1.748-1.297-2.941-3.004-3.841-4.933
			c-11.199-24.009-25.496-43.037-53.215-48.261c-32.292-6.086-63.109,6.475-85.275,30.133
			c-10.665,11.383-20.052,28.03-35.646,27.679c-12.264-0.277-21.791-11.686-33.952-13.294
			c-16.769-2.217-30.338,14.447-47.076,16.889c-13.132,1.917-25.887-5.191-39.132-6.021c-20.744-1.3-38.957,12.549-58.426,19.825
			c-8.683,3.245-17.848,5.182-27.096,5.791c-4.719,0.311-9.461,0.276-14.175-0.108c-3.612-0.294-8.47-2.112-11.934-0.768
			c-1.054,0.409-2.587,1.493-3.422,2.77h80.858C99.388,449.058,110.541,444.738,122.542,445.49z"/>
	</g>
</g>
<g id="Moon">
	<g>
		<circle style="fill:#92E3A9;stroke:#263238;stroke-miterlimit:10;" cx="265.075" cy="221.579" r="157.848"/>
		<g>
			<path style="fill:#263238;stroke:#263238;stroke-miterlimit:10;" d="M302.504,68.208c3.897,0.949,7.737,2.04,11.515,3.271
				c12.381,22.526,19.43,48.397,19.43,75.916c0,87.177-70.671,157.848-157.848,157.848c-17.086,0-33.534-2.726-48.944-7.747
				c26.84,48.832,78.761,81.932,138.419,81.932c87.177,0,157.848-70.671,157.848-157.848
				C422.923,147.3,371.612,85.015,302.504,68.208z"/>
		</g>
		<g>
			
				<ellipse transform="matrix(0.4617 -0.887 0.887 0.4617 -43.303 225.276)" style="fill:#263238;stroke:#263238;stroke-miterlimit:10;" cx="163.959" cy="148.316" rx="41.294" ry="20.101"/>
			<path style="fill:#92E3A9;stroke:#263238;stroke-miterlimit:10;" d="M152.855,143.205c-9.006,17.302-10.706,34.833-4.851,42.754
				c9.951,1.602,24.298-10.135,33.785-28.362c9.006-17.302,10.706-34.833,4.851-42.754
				C176.689,113.241,162.342,124.978,152.855,143.205z"/>
		</g>
		<g>
			
				<ellipse transform="matrix(0.971 -0.2392 0.2392 0.971 -47.8973 55.3447)" style="fill:#263238;stroke:#263238;stroke-miterlimit:10;" cx="204.023" cy="224.967" rx="20.203" ry="23.92"/>
			<path style="fill:#92E3A9;stroke:#263238;stroke-miterlimit:10;" d="M223.639,220.133c-0.386-1.568-0.897-3.066-1.512-4.485
				c-5.087-5.769-12.359-8.658-19.415-6.92c-10.834,2.669-17.055,15.232-13.894,28.059c0.386,1.568,0.897,3.066,1.512,4.486
				c5.087,5.769,12.359,8.658,19.415,6.92C220.579,245.522,226.8,232.96,223.639,220.133z"/>
		</g>
		<path style="fill:#263238;stroke:#263238;stroke-miterlimit:10;" d="M336.419,200.639c7.002-8.156,11.242-18.752,11.242-30.344
			c0-25.749-20.873-46.622-46.622-46.622c-25.749,0-46.622,20.873-46.622,46.622c0,25.749,20.873,46.622,46.622,46.622
			c3.354,0,6.623-0.362,9.776-1.035c-0.722,2.214-1.118,4.575-1.118,7.029c0,12.506,10.138,22.645,22.645,22.645
			c12.507,0,22.645-10.139,22.645-22.645C354.988,211.797,346.979,202.56,336.419,200.639z"/>
		<path style="fill:#92E3A9;stroke:#263238;stroke-miterlimit:10;" d="M337.59,201.211c6.396-7.451,10.27-17.13,10.27-27.719
			c0-23.521-19.068-42.589-42.589-42.589c-23.521,0-42.589,19.068-42.589,42.589s19.068,42.589,42.589,42.589
			c3.064,0,6.05-0.33,8.931-0.945c-0.66,2.022-1.021,4.179-1.021,6.421c0,11.424,9.261,20.686,20.686,20.686
			c11.425,0,20.686-9.261,20.686-20.686C354.553,211.403,347.237,202.965,337.59,201.211z"/>
		<path style="opacity:0.29;" d="M333.867,242.242c11.425,0,20.686-9.261,20.686-20.686c0-10.153-7.316-18.591-16.962-20.345
			c6.396-7.451,10.27-17.13,10.27-27.719c0-12.771-5.629-24.221-14.532-32.027c0.073,1.969,0.12,3.944,0.12,5.93
			c0,27.971-7.285,54.237-20.047,77.021C314.797,234.483,323.415,242.242,333.867,242.242z"/>
		<path style="fill:#92E3A9;stroke:#263238;stroke-miterlimit:10;" d="M305.743,282.396c1.949,6.454-2.751,13.582-10.498,15.922
			c-7.747,2.34-15.607-0.996-17.556-7.449c-1.949-6.454,2.751-13.582,10.498-15.922
			C295.934,272.607,303.794,275.942,305.743,282.396z"/>
		<path style="fill:#263238;stroke:#C4F0D1;stroke-miterlimit:10;" d="M305.743,282.396c1.949,6.454-2.751,13.582-10.498,15.922
			c-7.747,2.34-15.607-0.996-17.556-7.449c-1.949-6.454,2.751-13.582,10.498-15.922
			C295.934,272.607,303.794,275.942,305.743,282.396z"/>
		<g>
			<path style="fill:#263238;stroke:#263238;stroke-miterlimit:10;" d="M184.811,298.251c10.444,13.702,13.558,28.889,6.955,33.921
				c-6.602,5.032-20.421-1.996-30.864-15.697c-10.444-13.702-13.558-28.889-6.955-33.921
				C160.549,277.522,174.367,284.55,184.811,298.251z"/>
			<path style="fill:#92E3A9;stroke:#263238;stroke-miterlimit:10;" d="M157.469,287.643c-5.81,4.428-4.093,16.718,3.517,28.941
				c10.434,13.629,24.195,20.607,30.78,15.588c5.809-4.428,4.093-16.718-3.517-28.941
				C177.815,289.603,164.054,282.624,157.469,287.643z"/>
			<path style="opacity:0.29;" d="M155.206,303.926c1.144,3.995,3.084,8.327,5.78,12.658c10.434,13.629,24.195,20.607,30.78,15.588
				c5.583-4.255,4.199-15.771-2.669-27.51c-4.45,0.377-8.95,0.58-13.497,0.58C168.688,305.243,161.883,304.79,155.206,303.926z"/>
		</g>
		<g>
			
				<ellipse transform="matrix(0.5477 -0.8367 0.8367 0.5477 -79.9109 450.2723)" style="fill:#263238;stroke:#C4F0D1;stroke-miterlimit:10;" cx="376.49" cy="299.044" rx="14.192" ry="7.515"/>
			
				<ellipse transform="matrix(0.5477 -0.8367 0.8367 0.5477 -79.9109 450.2723)" style="opacity:0.29;fill:#263238;stroke:#C4F0D1;stroke-miterlimit:10;" cx="376.49" cy="299.044" rx="14.192" ry="7.515"/>
			<path style="fill:#263238;stroke:#C4F0D1;stroke-miterlimit:10;" d="M380.356,301.646c3.823-5.84,4.759-12.148,2.467-15.066
				c-3.59-0.757-8.87,2.617-12.621,8.348c-3.823,5.84-4.759,12.148-2.467,15.066C371.324,310.751,376.604,307.376,380.356,301.646z"
				/>
		</g>
		<path style="fill:#263238;stroke:#C4F0D1;stroke-miterlimit:10;" d="M407,163.652c2.849,9.898,2.076,18.808-1.727,19.903
			c-3.802,1.094-9.194-6.042-12.042-15.94c-2.849-9.898-2.076-18.808,1.727-19.903C398.76,146.618,404.152,153.754,407,163.652z"/>
		<path style="fill:#92E3A9;stroke:#263238;stroke-miterlimit:10;" d="M404.24,156.407c-1.382-1.115-2.736-1.588-3.933-1.244
			c-3.802,1.094-4.575,10.005-1.727,19.903c0.763,2.652,1.712,5.095,2.761,7.245c1.382,1.115,2.736,1.588,3.932,1.244
			c3.802-1.094,4.575-10.005,1.727-19.903C406.237,161,405.288,158.557,404.24,156.407z"/>
		<path style="fill:#263238;stroke:#C4F0D1;stroke-miterlimit:10;" d="M404.24,156.407c-1.382-1.115-2.736-1.588-3.933-1.244
			c-3.802,1.094-4.575,10.005-1.727,19.903c0.763,2.652,1.712,5.095,2.761,7.245c1.382,1.115,2.736,1.588,3.932,1.244
			c3.802-1.094,4.575-10.005,1.727-19.903C406.237,161,405.288,158.557,404.24,156.407z"/>
		<g>
			<path style="fill:#263238;stroke:#263238;stroke-miterlimit:10;" d="M304.205,85.664c-0.35,6.978-12.07,12.061-26.177,11.353
				c-14.107-0.708-25.259-6.938-24.909-13.916c0.35-6.978,12.07-12.061,26.177-11.353C293.403,72.455,304.555,78.686,304.205,85.664
				z"/>
			<path style="fill:#92E3A9;stroke:#263238;stroke-miterlimit:10;" d="M304.012,86.933c-4.217-4.016-12.358-6.989-21.84-7.464
				c-13.236-0.664-24.37,3.77-25.984,10.083c4.217,4.016,12.358,6.989,21.84,7.464C291.264,97.681,302.398,93.247,304.012,86.933z"
				/>
		</g>
		<g>
			<ellipse style="fill:#263238;stroke:#C4F0D1;stroke-miterlimit:10;" cx="259.71" cy="344.257" rx="21.943" ry="13.68"/>
			
				<ellipse style="opacity:0.29;fill:#263238;stroke:#C4F0D1;stroke-miterlimit:10;" cx="259.71" cy="344.257" rx="21.943" ry="13.68"/>
			<path style="fill:#263238;stroke:#C4F0D1;stroke-miterlimit:10;" d="M278.913,338.385c0-0.266-0.015-0.529-0.039-0.791
				c-3.752-4.186-10.926-7.017-19.163-7.017c-12.119,0-21.943,6.125-21.943,13.68c0,0.266,0.015,0.529,0.039,0.791
				c3.752,4.185,10.926,7.017,19.163,7.017C269.089,352.065,278.913,345.94,278.913,338.385z"/>
		</g>
		<g>
			<path style="fill:#263238;stroke:#263238;stroke-miterlimit:10;" d="M138.064,240.692c1.327,5.922,0.003,11.261-2.959,11.925
				c-2.961,0.664-6.438-3.599-7.765-9.522c-1.327-5.922-0.003-11.262,2.959-11.925C133.26,230.506,136.736,234.769,138.064,240.692z
				"/>
			<path style="fill:#92E3A9;stroke:#263238;stroke-miterlimit:10;" d="M138.064,240.692c-0.21-0.939-0.48-1.829-0.787-2.671
				c-1.243-1.256-2.599-1.875-3.862-1.592c-2.961,0.664-4.286,6.003-2.959,11.925c0.21,0.939,0.48,1.829,0.788,2.671
				c1.244,1.255,2.599,1.874,3.862,1.591C138.066,251.953,139.391,246.614,138.064,240.692z"/>
		</g>
	</g>
</g>
</svg>
