<?xml version="1.0" standalone="no"?>
<!DOCTYPE svg PUBLIC "-//W3C//DTD SVG 20010904//EN"
 "http://www.w3.org/TR/2001/REC-SVG-20010904/DTD/svg10.dtd">
<svg version="1.0" xmlns="http://www.w3.org/2000/svg"
 width="300.000000pt" height="300.000000pt" viewBox="0 0 300.000000 300.000000"
 preserveAspectRatio="xMidYMid meet">
<metadata>
Created by potrace 1.10, written by Peter Selinger 2001-2011
</metadata>
<g transform="translate(0.000000,300.000000) scale(0.100000,-0.100000)"
fill="#000000" stroke="none">
<path d="M1407 2671 c-35 -60 -8 -139 58 -162 23 -9 34 -18 30 -27 -3 -7 -5
-51 -5 -97 0 -75 -2 -84 -20 -90 -51 -16 -62 -84 -19 -124 l20 -19 -56 -40
c-30 -22 -109 -68 -174 -101 -156 -82 -226 -139 -268 -220 -40 -76 -43 -143
-13 -223 22 -59 74 -127 86 -115 8 7 3 19 -35 77 -15 23 -15 24 4 16 57 -24
85 -8 120 67 9 20 22 37 27 37 5 0 7 4 4 9 -6 8 65 61 82 61 19 0 94 62 112
93 28 45 25 72 -13 113 -24 26 -43 37 -74 41 l-43 6 53 31 c30 17 69 39 88 49
46 23 99 69 99 85 0 20 28 13 62 -16 45 -39 83 -64 153 -102 162 -87 226 -127
231 -142 3 -10 10 -18 15 -18 32 0 89 -98 97 -165 7 -63 -4 -104 -43 -170 -19
-31 -35 -62 -35 -68 0 -20 52 38 78 88 35 67 38 179 5 240 -45 86 -129 153
-293 235 -47 23 -114 63 -149 88 -53 37 -61 47 -49 56 46 34 44 93 -3 127 -28
20 -29 22 -29 113 l0 94 30 12 c34 14 70 54 70 78 0 12 -4 12 -22 -5 -32 -28
-66 -34 -104 -18 -41 17 -68 65 -59 106 8 37 4 37 -18 0z m110 -402 c8 -8 4
-17 -12 -35 -12 -13 -27 -24 -33 -24 -20 0 -20 28 -1 49 22 24 30 26 46 10z
m43 -44 c0 -24 -31 -65 -49 -65 -24 0 -22 25 2 45 15 11 27 26 27 33 0 7 5 12
10 12 6 0 10 -11 10 -25z m-236 -306 c31 -24 35 -67 9 -105 -9 -14 -51 -45
-93 -69 -89 -52 -117 -79 -135 -131 -16 -47 -38 -63 -62 -48 -69 43 -46 187
47 287 75 82 177 111 234 66z"/>
<path d="M711 1799 c-1 -91 -2 -98 -26 -113 -32 -21 -34 -70 -5 -88 11 -7 20
-17 20 -21 0 -13 -38 -42 -108 -84 -111 -65 -157 -142 -134 -221 13 -44 37
-80 47 -70 4 4 -1 27 -10 52 -19 50 -14 113 11 123 7 3 14 13 14 23 0 12 27
35 78 66 42 26 87 56 100 67 l22 20 23 -20 c12 -11 54 -40 92 -65 84 -54 96
-67 111 -126 10 -36 9 -54 -2 -85 -17 -47 -17 -57 -4 -57 18 0 42 63 42 111 0
74 -45 134 -137 182 -16 8 -49 29 -73 47 l-44 31 26 24 c33 30 33 59 1 89 -21
20 -25 33 -26 87 -2 112 -17 135 -18 28z m9 -203 c-13 -13 -50 21 -50 47 0 19
3 18 30 -8 20 -19 27 -32 20 -39z"/>
<path d="M2278 1846 c-5 -27 -8 -69 -8 -94 0 -35 -5 -50 -25 -68 -32 -30 -32
-59 1 -89 l26 -24 -40 -28 c-22 -15 -66 -44 -98 -63 -78 -48 -114 -99 -114
-162 0 -52 22 -118 39 -118 14 0 13 16 -3 59 -9 25 -10 48 -3 83 11 55 34 78
156 156 l73 48 95 -62 c53 -34 101 -73 109 -86 39 -69 43 -99 17 -153 -18 -37
-13 -55 11 -36 25 21 40 97 27 141 -17 57 -49 90 -151 155 -49 32 -90 64 -90
69 0 6 9 17 20 24 29 18 27 67 -5 88 -23 15 -24 22 -27 112 -3 86 -4 91 -10
48z m52 -210 c0 -15 -26 -46 -39 -46 -20 0 -19 16 1 37 25 26 38 29 38 9z"/>
<path d="M1032 1410 c-22 -30 -22 -30 -2 -30 19 0 20 -6 20 -187 l0 -188 -60
0 -60 0 0 63 c0 56 2 62 21 62 20 0 20 0 2 26 l-19 26 -214 0 c-213 0 -214 0
-233 -23 -19 -24 -19 -24 2 -27 21 -3 21 -4 21 -378 l0 -374 -25 0 c-22 0 -25
-4 -25 -40 l0 -40 1040 0 1040 0 0 40 c0 36 -2 40 -25 40 l-25 0 0 375 c0 372
0 375 21 375 19 0 19 1 4 28 l-16 27 -217 -2 -216 -1 -19 -26 c-18 -26 -18
-26 2 -26 19 0 21 -6 21 -62 l0 -63 -60 1 -61 1 -2 186 -2 187 23 0 23 0 -23
30 -22 30 -446 0 -446 0 -22 -30z m670 -17 c-112 -2 -292 -2 -400 0 -108 1
-17 2 203 2 220 0 309 -1 197 -2z m223 -24 c-6 -9 -12 -48 -14 -98 -1 -10 -11
-6 -30 13 -40 39 -107 46 -153 18 -34 -21 -34 -21 -63 -2 -38 25 -102 26 -135
1 -24 -19 -25 -19 -62 0 -48 25 -92 24 -134 -2 l-34 -21 -26 21 c-41 32 -101
28 -147 -10 -41 -34 -43 -33 -50 44 l-5 47 430 0 c304 0 427 -3 423 -11z
m-658 -103 c27 -23 28 -27 28 -122 l0 -97 -87 -1 c-49 0 -88 3 -88 7 0 191 -1
187 25 212 32 33 84 33 122 1z m198 -1 c23 -22 25 -31 25 -122 l0 -98 -91 0
-91 0 4 98 c3 94 4 100 31 123 38 32 90 32 122 -1z m192 1 c27 -23 28 -27 28
-122 l0 -97 -87 -1 -88 -2 0 99 c0 91 2 100 25 122 32 33 84 33 122 1z m198 0
c28 -29 37 -69 33 -155 l-3 -65 -90 0 -89 -1 2 100 c3 93 5 102 28 123 34 30
87 30 119 -2z m-979 -113 c-10 -10 -306 -11 -312 -1 -3 4 68 8 157 8 89 0 159
-3 155 -7z m1560 0 c-11 -11 -256 -12 -256 -2 0 5 59 9 132 9 72 0 128 -3 124
-7z m-1534 -80 c-3 -49 0 -62 18 -80 41 -44 144 -26 162 28 4 11 10 12 32 1
15 -6 46 -12 69 -12 l42 -1 -33 -29 c-18 -17 -41 -30 -51 -30 -10 0 -25 -8
-34 -18 -14 -15 -17 -49 -17 -227 -1 -165 1 -212 12 -218 7 -4 39 -23 72 -42
32 -19 62 -35 67 -35 5 0 34 14 64 31 62 35 91 34 146 -7 40 -29 58 -30 93 -3
14 11 42 25 61 30 31 9 43 6 95 -23 59 -32 61 -32 88 -16 15 9 46 27 69 38 29
15 45 31 52 53 6 18 10 111 9 209 -1 200 -3 206 -71 236 -23 10 -48 26 -56 35
-12 15 -9 17 28 17 23 0 52 5 63 11 18 10 24 7 45 -20 22 -28 30 -31 77 -31
43 0 57 5 76 25 19 21 22 32 18 80 l-5 55 196 0 c152 0 192 -3 183 -12 -17
-17 -17 -709 0 -726 9 -9 -206 -12 -970 -12 -980 0 -983 0 -972 20 7 13 10
136 8 375 l-3 355 186 0 185 0 -4 -57z m508 -62 l75 -1 -34 -29 c-19 -16 -44
-31 -57 -34 -49 -9 -145 44 -113 63 7 5 23 7 34 5 11 -2 54 -4 95 -4z m313 0
c18 -6 18 -7 0 -23 -10 -10 -34 -24 -53 -32 -40 -16 -87 -5 -128 29 l-23 20
83 6 c46 3 88 6 93 6 6 1 18 -2 28 -6z m-395 -91 l37 -9 0 -205 0 -204 -37
-11 c-20 -6 -48 -24 -61 -40 l-24 -29 -22 28 c-12 17 -38 34 -61 41 l-40 12 0
209 c0 203 0 208 20 208 30 0 78 27 90 50 11 20 12 19 36 -10 14 -16 42 -34
62 -40z m509 5 c15 -4 32 -8 36 -9 4 0 9 -95 10 -209 l2 -207 -33 -6 c-18 -4
-46 -19 -63 -35 l-31 -29 -26 25 c-13 14 -41 30 -61 36 l-36 11 0 204 0 205
37 10 c20 5 47 22 60 38 l23 29 27 -29 c14 -15 39 -31 55 -34z m-307 30 c13
-14 38 -29 54 -33 l31 -8 3 -206 2 -206 -37 -13 c-20 -6 -46 -22 -59 -35 l-22
-24 -31 29 c-17 16 -45 32 -61 36 l-30 7 2 206 3 206 31 8 c18 4 43 19 55 33
30 31 30 31 59 0z m945 -596 c4 -6 5 -13 2 -15 -3 -3 -317 -5 -698 -5 -1343 1
-1276 0 -1255 16 17 13 152 15 982 15 671 0 965 -3 969 -11z"/>
<path d="M682 1080 c-56 -25 -72 -64 -72 -170 0 -110 10 -120 123 -120 111 0
118 7 118 124 0 93 -15 135 -54 160 -39 25 -70 27 -115 6z m116 -46 c19 -22
22 -36 22 -120 l0 -94 -90 0 -90 0 0 85 c0 98 13 133 55 151 39 17 74 10 103
-22z"/>
<path d="M2224 1086 c-60 -26 -74 -57 -74 -166 0 -125 5 -130 118 -130 112 0
122 10 122 126 0 107 -13 134 -77 168 -38 19 -48 19 -89 2z m75 -27 c46 -16
61 -53 61 -154 l0 -85 -90 0 -90 0 0 93 c0 99 11 130 54 147 28 12 28 12 65
-1z"/>
<path d="M652 676 l-37 -34 -3 -97 c-5 -129 0 -135 118 -135 110 0 123 11 128
108 4 86 -14 140 -58 170 -50 34 -102 30 -148 -12z m142 -22 c24 -25 26 -32
26 -123 l0 -96 -91 3 -91 3 4 96 c3 89 5 96 31 119 38 33 86 32 121 -2z"/>
<path d="M2212 696 c-48 -26 -62 -63 -62 -166 0 -116 4 -121 121 -122 112 0
119 7 119 128 l0 93 -38 41 c-33 34 -45 40 -78 40 -21 -1 -49 -6 -62 -14z
m115 -40 c26 -23 28 -30 31 -119 l4 -96 -91 -3 -91 -3 0 96 c0 91 2 98 26 123
35 34 83 35 121 2z"/>
</g>
</svg>
